# xmcd CD database file
#
# Track frame offsets:
#	150
#	12747
#	26647
#	38915
#	51815
#	66595
#	80060
#	97995
#	116685
#	137990
#	149492
#	164967
#	179540
#	194315
#	213502
#	230075
#	246737
#	264010
#	276170
#	293572
#	309542
#
# Disc length: 4392 seconds
#
# Revision: 4
# Processed by: cddbd v1.4PL0 Copyright (c) Steve Scherf et al.
# Submitted via: CDex 1.50
#
DISCID=53112615
DTITLE=Townes Van Zandt - The Best Of
DYEAR=1986
DGENRE=Country
TTITLE0=Kathleen
TTITLE1=St John The Gambler
TTITLE2=Waiting Around to Die
TTITLE3=Don't Take It Too Bad
TTITLE4=Colorado Girl
TTITLE5=I'll Be Here In The Morning
TTITLE6=Delta Momma Blues
TTITLE7=Tower Song
TTITLE8=Brand New Companion
TTITLE9=Two Hands
TTITLE10=Standin'
TTITLE11=No Deal
TTITLE12=To Live Is To Fly
TTITLE13=No Lonesome Tune
TTITLE14=Honky Tonkin'
TTITLE15=Pancho And Lefty
TTITLE16=If I Needed You
TTITLE17=Heavenly Houseboat Blues
TTITLE18=Loretta
TTITLE19=No Place To Fall
TTITLE20=Flyin' Shoes
EXTD=YEAR: 1986
EXTT0=
EXTT1=
EXTT2=
EXTT3=
EXTT4=
EXTT5=
EXTT6=
EXTT7=
EXTT8=
EXTT9=
EXTT10=
EXTT11=
EXTT12=
EXTT13=
EXTT14=
EXTT15=
EXTT16=
EXTT17=
EXTT18=
EXTT19=
EXTT20=
PLAYORDER=
